<?xml version="1.0" encoding="UTF-8" standalone="no"?>
<svg
   xmlns:dc="http://purl.org/dc/elements/1.1/"
   xmlns:cc="http://creativecommons.org/ns#"
   xmlns:rdf="http://www.w3.org/1999/02/22-rdf-syntax-ns#"
   xmlns:svg="http://www.w3.org/2000/svg"
   xmlns="http://www.w3.org/2000/svg"
   xmlns:sodipodi="http://sodipodi.sourceforge.net/DTD/sodipodi-0.dtd"
   xmlns:inkscape="http://www.inkscape.org/namespaces/inkscape"
   inkscape:version="1.1-dev (bc69992, 2020-04-15)"
   sodipodi:docname="logo-vector-over-black.svg"
   version="1.1"
   id="svg328"
   xml:space="preserve"
   width="640.6441"
   height="359.69772"
   viewBox="0 0 640.6441 359.69773"><sodipodi:namedview
     inkscape:current-layer="g336"
     inkscape:window-maximized="0"
     inkscape:window-y="0"
     inkscape:window-x="0"
     inkscape:cy="365.59382"
     inkscape:cx="558.62746"
     inkscape:zoom="0.92370266"
     showgrid="false"
     id="namedview895"
     inkscape:window-height="900"
     inkscape:window-width="1440"
     inkscape:pageshadow="2"
     inkscape:pageopacity="0"
     guidetolerance="10"
     gridtolerance="10"
     objecttolerance="10"
     borderopacity="1"
     bordercolor="#666666"
     pagecolor="#ffffff" /><metadata
     id="metadata334"><rdf:RDF><cc:Work
         rdf:about=""><dc:format>image/svg+xml</dc:format><dc:type
           rdf:resource="http://purl.org/dc/dcmitype/StillImage" /><dc:title></dc:title></cc:Work></rdf:RDF></metadata><defs
     id="defs332"><clipPath
       clipPathUnits="userSpaceOnUse"
       id="clipPath350"><path
         d="M 0,392 H 573 V 0 H 0 Z"
         id="path348" /></clipPath></defs><g
     style="display:inline"
     id="g336"
     transform="matrix(1.3333333,0,0,-1.3333333,-54.022932,465.81959)"><path
       d="m 126.161,227.222 h 18.083 v -115.06 h -18.083 z"
       style="fill:#ffffff;fill-opacity:1;fill-rule:nonzero;stroke:none"
       id="path338" /><g
       id="g340"
       transform="translate(175.4756,176.1025)"><path
         d="M 0,0 H 23.339 V -16.441 H 0 v -47.5 H -18.083 V 51.119 H 29.748 V 34.684 H 0 Z"
         style="fill:#ffffff;fill-opacity:1;fill-rule:nonzero;stroke:none"
         id="path342" /></g><g
       id="g344"><g
         id="g346"
         clip-path="url(#clipPath350)"><g
           id="g352"
           transform="translate(230.5352,138.6265)"><path
             d="m 0,0 c 0,-4.168 0.851,-7.097 2.549,-8.799 1.702,-1.699 3.971,-2.546 6.818,-2.546 2.849,0 5.121,0.847 6.823,2.546 1.701,1.702 2.546,4.631 2.546,8.799 v 62.128 c 0,4.165 -0.845,7.097 -2.546,8.799 -1.702,1.695 -3.974,2.549 -6.823,2.549 -2.847,0 -5.116,-0.854 -6.818,-2.549 C 0.851,69.225 0,66.293 0,62.128 Z m -18.083,60.98 c 0,9.315 2.361,16.461 7.069,21.452 4.71,4.987 11.508,7.48 20.381,7.48 8.881,0 15.673,-2.493 20.386,-7.48 4.708,-4.991 7.069,-12.137 7.069,-21.452 V 1.147 c 0,-9.315 -2.361,-16.466 -7.069,-21.445 -4.713,-4.991 -11.505,-7.486 -20.386,-7.486 -8.873,0 -15.671,2.495 -20.381,7.486 -4.708,4.979 -7.069,12.13 -7.069,21.445 z"
             style="fill:#ffffff;fill-opacity:1;fill-rule:nonzero;stroke:none"
             id="path354" /></g><g
           id="g356"
           transform="translate(297.1079,210.7861)"><path
             d="m 0,0 v -35.343 h 7.068 c 3.392,0 6.056,0.876 7.972,2.632 1.918,1.753 2.88,4.927 2.88,9.532 v 11.343 c 0,4.162 -0.742,7.174 -2.221,9.041 C 14.217,-0.931 11.888,0 8.71,0 Z m 19.721,-98.625 c -0.22,0.763 -0.433,1.477 -0.653,2.136 -0.226,0.657 -0.411,1.479 -0.571,2.467 -0.166,0.984 -0.28,2.244 -0.331,3.776 -0.061,1.534 -0.083,3.455 -0.083,5.756 v 18.08 c 0,5.37 -0.937,9.15 -2.798,11.343 -1.865,2.189 -4.876,3.285 -9.036,3.285 H 0 V -98.625 H -18.08 V 16.436 H 9.204 c 9.424,0 16.244,-2.196 20.469,-6.575 C 33.89,5.476 36,-1.15 36,-10.032 v -9.035 c 0,-11.837 -3.951,-19.62 -11.836,-23.342 4.599,-1.864 7.748,-4.904 9.449,-9.124 1.696,-4.222 2.553,-9.344 2.553,-15.368 v -17.752 c 0,-2.855 0.108,-5.344 0.325,-7.482 0.219,-2.136 0.765,-4.3 1.647,-6.49 z"
             style="fill:#ffffff;fill-opacity:1;fill-rule:nonzero;stroke:none"
             id="path358" /></g><g
           id="g360"
           transform="translate(363.1841,178.7319)"><path
             d="M 0,0 H 24.82 V -16.438 H 0 v -33.7 H 31.232 V -66.57 H -18.077 V 48.49 H 31.232 V 32.054 H 0 Z"
             style="fill:#ffffff;fill-opacity:1;fill-rule:nonzero;stroke:none"
             id="path362" /></g><g
           id="g364"
           transform="translate(403.2949,199.6064)"><path
             d="m 0,0 c 0,9.315 2.219,16.461 6.654,21.452 4.44,4.987 11.098,7.48 19.974,7.48 8.875,0 15.533,-2.493 19.973,-7.48 C 51.034,16.461 53.255,9.315 53.255,0 V -4.437 H 36.16 v 5.585 c 0,4.165 -0.8,7.097 -2.381,8.799 -1.588,1.695 -3.811,2.549 -6.661,2.549 -2.846,0 -5.07,-0.854 -6.654,-2.549 -1.596,-1.702 -2.381,-4.634 -2.381,-8.799 0,-3.94 0.873,-7.423 2.626,-10.435 1.753,-3.015 3.946,-5.861 6.578,-8.545 2.629,-2.689 5.45,-5.372 8.462,-8.056 3.012,-2.689 5.838,-5.618 8.459,-8.793 2.638,-3.18 4.83,-6.798 6.58,-10.848 1.75,-4.06 2.636,-8.827 2.636,-14.304 0,-9.315 -2.276,-16.466 -6.823,-21.445 -4.549,-4.991 -11.263,-7.486 -20.142,-7.486 -8.873,0 -15.588,2.495 -20.133,7.486 -4.548,4.979 -6.82,12.13 -6.82,21.445 v 7.892 h 17.09 v -9.039 c 0,-4.168 0.853,-7.071 2.554,-8.713 1.694,-1.644 3.969,-2.47 6.818,-2.47 2.852,0 5.122,0.826 6.826,2.47 1.698,1.642 2.544,4.545 2.544,8.713 0,3.94 -0.88,7.423 -2.63,10.435 -1.75,3.011 -3.945,5.863 -6.571,8.55 -2.633,2.683 -5.459,5.364 -8.474,8.051 -3.009,2.686 -5.827,5.615 -8.456,8.798 -2.635,3.175 -4.828,6.789 -6.577,10.849 C 0.877,-10.249 0,-5.481 0,0"
             style="fill:#ffffff;fill-opacity:1;fill-rule:nonzero;stroke:none"
             id="path366" /></g><g
           id="g368"
           transform="translate(462.1367,227.2217)"><path
             d="M 0,0 H 55.887 V -16.436 H 36.985 V -115.06 H 18.899 v 98.624 H 0 Z"
             style="fill:#ffffff;fill-opacity:1;fill-rule:nonzero;stroke:none"
             id="path370" /></g><path
           d="m 277.495,95.271 h 2.09 V 79.854 h -2.09 z"
           style="fill:#ffffff;fill-opacity:1;fill-rule:nonzero;stroke:none"
           id="path372" /><g
           id="g374"
           transform="translate(285.2256,90.1777)"><path
             d="m 0,0 h 1.958 v -1.587 h 0.043 c 0.249,0.548 0.677,0.993 1.285,1.336 0.611,0.342 1.316,0.514 2.111,0.514 0.497,0 0.971,-0.08 1.428,-0.229 0.457,-0.154 0.856,-0.388 1.199,-0.708 0.342,-0.32 0.611,-0.731 0.816,-1.233 0.2,-0.497 0.303,-1.091 0.303,-1.776 v -6.64 H 7.185 v 6.098 c 0,0.479 -0.063,0.891 -0.195,1.233 C 6.859,-2.655 6.682,-2.375 6.465,-2.17 6.248,-1.958 5.997,-1.804 5.717,-1.707 5.432,-1.616 5.14,-1.57 4.833,-1.57 4.425,-1.57 4.048,-1.633 3.7,-1.764 3.352,-1.896 3.046,-2.101 2.787,-2.387 2.524,-2.667 2.321,-3.026 2.176,-3.46 2.03,-3.9 1.958,-4.414 1.958,-5.007 v -5.316 H 0 Z"
             style="fill:#ffffff;fill-opacity:1;fill-rule:nonzero;stroke:none"
             id="path376" /></g><g
           id="g378"
           transform="translate(304.4976,81.4248)"><path
             d="m 0,0 c 0.52,0 0.994,0.091 1.416,0.273 0.417,0.178 0.776,0.423 1.068,0.738 0.285,0.313 0.514,0.69 0.674,1.13 0.159,0.445 0.239,0.93 0.239,1.45 0,0.526 -0.08,1.005 -0.239,1.451 C 2.998,5.481 2.769,5.858 2.484,6.172 2.192,6.486 1.833,6.731 1.416,6.915 0.994,7.091 0.52,7.183 0,7.183 -0.525,7.183 -0.994,7.091 -1.416,6.915 -1.838,6.731 -2.192,6.486 -2.484,6.172 -2.775,5.858 -2.998,5.481 -3.158,5.042 -3.317,4.596 -3.397,4.117 -3.397,3.591 c 0,-0.52 0.08,-1.005 0.239,-1.45 0.16,-0.44 0.383,-0.817 0.674,-1.13 0.292,-0.315 0.646,-0.56 1.068,-0.738 C -0.994,0.091 -0.525,0 0,0 M 5.356,-1.57 H 3.397 v 1.484 H 3.352 C 2.975,-0.64 2.455,-1.068 1.799,-1.37 1.136,-1.679 0.457,-1.833 -0.24,-1.833 c -0.799,0 -1.519,0.143 -2.17,0.417 -0.645,0.273 -1.193,0.662 -1.65,1.153 -0.457,0.492 -0.811,1.068 -1.056,1.719 -0.251,0.656 -0.371,1.364 -0.371,2.135 0,0.771 0.12,1.485 0.371,2.147 0.245,0.657 0.599,1.233 1.056,1.719 0.457,0.485 1.005,0.868 1.65,1.142 0.651,0.274 1.371,0.417 2.17,0.417 0.742,0 1.439,-0.161 2.09,-0.469 C 2.501,8.233 3.003,7.811 3.352,7.274 h 0.045 v 7.617 h 1.959 z"
             style="fill:#ffffff;fill-opacity:1;fill-rule:nonzero;stroke:none"
             id="path380" /></g><g
           id="g382"
           transform="translate(324.1392,79.8545)"><path
             d="M 0,0 H -1.958 V 1.593 H -2.004 C -2.25,1.039 -2.678,0.594 -3.289,0.251 -3.9,-0.092 -4.602,-0.263 -5.401,-0.263 c -0.509,0 -0.988,0.08 -1.439,0.235 -0.452,0.148 -0.846,0.387 -1.188,0.702 -0.337,0.319 -0.611,0.73 -0.816,1.233 -0.2,0.502 -0.303,1.091 -0.303,1.776 v 6.64 h 1.959 V 4.226 c 0,-0.481 0.068,-0.892 0.199,-1.228 0.132,-0.343 0.303,-0.617 0.52,-0.828 0.217,-0.212 0.468,-0.365 0.754,-0.457 0.279,-0.097 0.576,-0.143 0.879,-0.143 0.405,0 0.782,0.063 1.13,0.195 0.354,0.131 0.657,0.337 0.919,0.622 0.258,0.279 0.463,0.639 0.606,1.079 0.148,0.433 0.223,0.948 0.223,1.542 v 5.315 H 0 Z"
             style="fill:#ffffff;fill-opacity:1;fill-rule:nonzero;stroke:none"
             id="path384" /></g><g
           id="g386"
           transform="translate(334.7651,87.5854)"><path
             d="m 0,0 c -0.234,0.291 -0.52,0.537 -0.862,0.731 -0.343,0.194 -0.76,0.291 -1.251,0.291 -0.468,0 -0.867,-0.097 -1.21,-0.291 -0.343,-0.194 -0.514,-0.485 -0.514,-0.862 0,-0.303 0.103,-0.549 0.297,-0.737 0.194,-0.194 0.428,-0.342 0.696,-0.463 0.269,-0.113 0.554,-0.199 0.863,-0.256 0.302,-0.058 0.565,-0.109 0.782,-0.155 0.422,-0.102 0.816,-0.222 1.187,-0.371 0.371,-0.142 0.686,-0.331 0.96,-0.565 0.268,-0.234 0.473,-0.514 0.628,-0.851 0.154,-0.331 0.228,-0.736 0.228,-1.216 0,-0.583 -0.12,-1.079 -0.371,-1.496 -0.246,-0.411 -0.565,-0.748 -0.954,-1.01 -0.394,-0.263 -0.839,-0.452 -1.341,-0.566 -0.503,-0.114 -1.005,-0.177 -1.513,-0.177 -0.857,0 -1.61,0.131 -2.256,0.394 -0.645,0.263 -1.222,0.743 -1.73,1.439 l 1.479,1.216 c 0.32,-0.319 0.679,-0.599 1.068,-0.845 0.394,-0.251 0.873,-0.371 1.439,-0.371 0.245,0 0.496,0.023 0.748,0.075 0.256,0.05 0.479,0.13 0.679,0.239 0.194,0.108 0.354,0.246 0.48,0.417 0.119,0.166 0.182,0.36 0.182,0.577 0,0.285 -0.091,0.525 -0.274,0.719 -0.177,0.188 -0.399,0.337 -0.65,0.445 -0.258,0.109 -0.526,0.194 -0.806,0.258 -0.285,0.068 -0.536,0.119 -0.754,0.165 -0.416,0.102 -0.816,0.217 -1.193,0.349 -0.382,0.13 -0.713,0.302 -1.005,0.524 -0.291,0.218 -0.519,0.492 -0.696,0.829 -0.171,0.331 -0.263,0.742 -0.263,1.238 0,0.537 0.115,1.006 0.337,1.405 0.228,0.4 0.525,0.731 0.897,0.988 0.371,0.263 0.787,0.457 1.261,0.588 0.474,0.131 0.948,0.2 1.428,0.2 C -1.308,2.855 -0.64,2.724 0,2.461 0.634,2.198 1.142,1.764 1.524,1.153 Z"
             style="fill:#ffffff;fill-opacity:1;fill-rule:nonzero;stroke:none"
             id="path388" /></g><g
           id="g390"
           transform="translate(346.6528,88.4761)"><path
             d="m 0,0 h -2.81 v -4.676 c 0,-0.291 0.006,-0.582 0.023,-0.863 0.012,-0.285 0.069,-0.536 0.161,-0.764 0.096,-0.223 0.239,-0.405 0.433,-0.543 0.2,-0.137 0.485,-0.205 0.862,-0.205 0.235,0 0.475,0.022 0.72,0.062 0.245,0.046 0.474,0.126 0.673,0.24 V -8.53 c -0.233,-0.132 -0.53,-0.223 -0.901,-0.274 -0.371,-0.052 -0.657,-0.08 -0.863,-0.08 -0.754,0 -1.336,0.108 -1.753,0.319 -0.411,0.212 -0.719,0.481 -0.913,0.817 -0.194,0.331 -0.314,0.708 -0.348,1.119 -0.034,0.417 -0.052,0.834 -0.052,1.251 V 0 h -2.267 v 1.702 h 2.267 V 4.597 H -2.81 V 1.702 H 0 Z"
             style="fill:#ffffff;fill-opacity:1;fill-rule:nonzero;stroke:none"
             id="path392" /></g><g
           id="g394"
           transform="translate(351.3574,90.1777)"><path
             d="m 0,0 h 1.958 v -1.587 h 0.041 c 0.131,0.274 0.308,0.525 0.525,0.748 0.217,0.222 0.462,0.417 0.731,0.576 0.268,0.16 0.559,0.286 0.879,0.383 0.32,0.091 0.639,0.143 0.959,0.143 0.32,0 0.611,-0.046 0.874,-0.132 L 5.875,-1.981 c -0.16,0.045 -0.319,0.08 -0.479,0.108 -0.16,0.029 -0.32,0.046 -0.48,0.046 -0.953,0 -1.69,-0.274 -2.198,-0.811 -0.508,-0.537 -0.76,-1.37 -0.76,-2.501 v -5.184 H 0 Z"
             style="fill:#ffffff;fill-opacity:1;fill-rule:nonzero;stroke:none"
             id="path396" /></g><path
           d="m 361.744,90.178 h 1.958 V 79.855 h -1.958 z m -0.457,3.699 c 0,0.394 0.137,0.731 0.422,1.017 0.286,0.28 0.623,0.422 1.011,0.422 0.394,0 0.731,-0.142 1.016,-0.422 0.28,-0.286 0.423,-0.623 0.423,-1.017 0,-0.388 -0.143,-0.73 -0.423,-1.01 -0.285,-0.285 -0.622,-0.423 -1.016,-0.423 -0.388,0 -0.725,0.138 -1.011,0.423 -0.285,0.28 -0.422,0.622 -0.422,1.01"
           style="fill:#ffffff;fill-opacity:1;fill-rule:nonzero;stroke:none"
           id="path398" /><g
           id="g400"
           transform="translate(374.5679,84.8223)"><path
             d="m 0,0 c -0.468,0 -0.942,-0.029 -1.428,-0.08 -0.485,-0.052 -0.93,-0.149 -1.33,-0.291 -0.4,-0.149 -0.725,-0.349 -0.976,-0.611 -0.257,-0.263 -0.383,-0.594 -0.383,-0.999 0,-0.6 0.2,-1.029 0.599,-1.286 0.4,-0.262 0.943,-0.393 1.622,-0.393 0.537,0 0.994,0.091 1.371,0.274 0.377,0.177 0.685,0.416 0.919,0.708 0.228,0.291 0.394,0.611 0.497,0.965 0.102,0.359 0.154,0.708 0.154,1.056 V 0 Z m -5.533,4.094 c 0.554,0.508 1.193,0.885 1.919,1.141 0.725,0.252 1.45,0.383 2.175,0.383 0.753,0 1.404,-0.097 1.947,-0.285 C 1.056,5.144 1.501,4.893 1.85,4.573 2.198,4.253 2.455,3.882 2.621,3.471 2.792,3.06 2.872,2.626 2.872,2.175 v -5.27 c 0,-0.36 0.011,-0.697 0.023,-0.999 0.017,-0.308 0.034,-0.594 0.068,-0.874 H 1.216 c -0.04,0.526 -0.063,1.045 -0.063,1.571 H 1.107 C 0.673,-4.065 0.16,-4.54 -0.434,-4.813 c -0.6,-0.275 -1.285,-0.417 -2.073,-0.417 -0.479,0 -0.936,0.068 -1.37,0.2 -0.434,0.131 -0.817,0.325 -1.142,0.588 -0.326,0.262 -0.588,0.582 -0.776,0.964 -0.189,0.389 -0.28,0.834 -0.28,1.342 0,0.668 0.148,1.228 0.445,1.679 0.297,0.445 0.702,0.816 1.222,1.096 0.514,0.286 1.113,0.486 1.804,0.611 0.691,0.125 1.428,0.183 2.21,0.183 h 1.439 v 0.44 c 0,0.256 -0.052,0.519 -0.154,0.782 -0.103,0.262 -0.252,0.496 -0.457,0.708 -0.2,0.211 -0.457,0.377 -0.76,0.502 -0.308,0.12 -0.668,0.183 -1.09,0.183 -0.377,0 -0.708,-0.034 -0.994,-0.109 C -2.689,3.865 -2.946,3.774 -3.181,3.666 -3.415,3.557 -3.626,3.431 -3.814,3.289 -4.003,3.14 -4.18,3.003 -4.357,2.872 Z"
             style="fill:#ffffff;fill-opacity:1;fill-rule:nonzero;stroke:none"
             id="path402" /></g><g
           id="g404"
           transform="translate(387.957,87.5854)"><path
             d="m 0,0 c -0.234,0.291 -0.52,0.537 -0.862,0.731 -0.337,0.194 -0.754,0.291 -1.251,0.291 -0.462,0 -0.867,-0.097 -1.204,-0.291 -0.343,-0.194 -0.514,-0.485 -0.514,-0.862 0,-0.303 0.097,-0.549 0.291,-0.737 0.2,-0.194 0.428,-0.342 0.697,-0.463 0.268,-0.113 0.559,-0.199 0.862,-0.256 0.302,-0.058 0.565,-0.109 0.782,-0.155 0.423,-0.102 0.817,-0.222 1.188,-0.371 C 0.36,-2.255 0.68,-2.444 0.948,-2.678 1.216,-2.912 1.427,-3.192 1.582,-3.529 1.73,-3.86 1.81,-4.265 1.81,-4.745 1.81,-5.328 1.685,-5.824 1.439,-6.241 1.193,-6.652 0.874,-6.989 0.479,-7.251 0.085,-7.514 -0.36,-7.703 -0.862,-7.817 c -0.497,-0.114 -1.005,-0.177 -1.513,-0.177 -0.857,0 -1.604,0.131 -2.25,0.394 -0.645,0.263 -1.228,0.743 -1.73,1.439 l 1.479,1.216 c 0.32,-0.319 0.674,-0.599 1.067,-0.845 0.389,-0.251 0.869,-0.371 1.434,-0.371 0.251,0 0.497,0.023 0.753,0.075 0.252,0.05 0.48,0.13 0.674,0.239 0.2,0.108 0.354,0.246 0.48,0.417 0.125,0.166 0.188,0.36 0.188,0.577 0,0.285 -0.091,0.525 -0.274,0.719 -0.182,0.188 -0.4,0.337 -0.656,0.445 -0.252,0.109 -0.52,0.194 -0.806,0.258 -0.279,0.068 -0.53,0.119 -0.748,0.165 -0.422,0.102 -0.822,0.217 -1.198,0.349 -0.377,0.13 -0.714,0.302 -1,0.524 -0.291,0.218 -0.525,0.492 -0.696,0.829 -0.177,0.331 -0.263,0.742 -0.263,1.238 0,0.537 0.109,1.006 0.337,1.405 0.223,0.4 0.52,0.731 0.891,0.988 0.371,0.263 0.793,0.457 1.261,0.588 0.474,0.131 0.948,0.2 1.428,0.2 C -1.308,2.855 -0.64,2.724 0,2.461 0.64,2.198 1.147,1.764 1.524,1.153 Z"
             style="fill:#ffffff;fill-opacity:1;fill-rule:nonzero;stroke:none"
             id="path406" /></g><g
           id="g408"
           transform="translate(403.0479,95.271)"><path
             d="M 0,0 H 9.689 V -1.958 H 2.09 V -6.795 H 9.164 V -8.753 H 2.09 v -6.664 H 0 Z"
             style="fill:#ffffff;fill-opacity:1;fill-rule:nonzero;stroke:none"
             id="path410" /></g><g
           id="g412"
           transform="translate(418.8125,85.0161)"><path
             d="M 0,0 C 0,-0.52 0.08,-1.005 0.24,-1.451 0.399,-1.89 0.622,-2.267 0.914,-2.581 1.205,-2.895 1.559,-3.14 1.981,-3.318 2.404,-3.5 2.872,-3.591 3.397,-3.591 c 0.52,0 0.994,0.091 1.416,0.273 0.417,0.178 0.777,0.423 1.068,0.737 0.286,0.314 0.514,0.691 0.674,1.13 0.16,0.446 0.24,0.931 0.24,1.451 0,0.525 -0.08,1.005 -0.24,1.45 C 6.395,1.89 6.167,2.267 5.881,2.581 5.59,2.895 5.23,3.14 4.813,3.323 4.391,3.5 3.917,3.591 3.397,3.591 2.872,3.591 2.404,3.5 1.981,3.323 1.559,3.14 1.205,2.895 0.914,2.581 0.622,2.267 0.399,1.89 0.24,1.45 0.08,1.005 0,0.525 0,0 m -2.09,0 c 0,0.753 0.143,1.461 0.423,2.113 0.285,0.651 0.674,1.227 1.165,1.718 0.496,0.497 1.073,0.885 1.741,1.165 0.668,0.285 1.388,0.428 2.158,0.428 0.771,0 1.485,-0.143 2.153,-0.428 C 6.218,4.716 6.801,4.328 7.297,3.831 7.788,3.34 8.177,2.764 8.462,2.113 8.741,1.461 8.885,0.753 8.885,0 8.885,-0.753 8.741,-1.461 8.462,-2.125 8.177,-2.781 7.788,-3.357 7.297,-3.842 6.801,-4.328 6.218,-4.716 5.55,-4.996 4.882,-5.282 4.168,-5.424 3.397,-5.424 c -0.77,0 -1.49,0.142 -2.158,0.428 -0.668,0.28 -1.245,0.668 -1.741,1.154 -0.491,0.485 -0.88,1.061 -1.165,1.717 C -1.947,-1.461 -2.09,-0.753 -2.09,0"
             style="fill:#ffffff;fill-opacity:1;fill-rule:nonzero;stroke:none"
             id="path414" /></g><g
           id="g416"
           transform="translate(432.333,90.1777)"><path
             d="m 0,0 h 1.959 v -1.587 h 0.045 c 0.132,0.274 0.303,0.525 0.52,0.748 0.223,0.222 0.462,0.417 0.731,0.576 0.268,0.16 0.565,0.286 0.885,0.383 0.32,0.091 0.639,0.143 0.954,0.143 0.319,0 0.61,-0.046 0.873,-0.132 L 5.881,-1.981 c -0.159,0.045 -0.319,0.08 -0.48,0.108 -0.159,0.029 -0.319,0.046 -0.479,0.046 -0.959,0 -1.69,-0.274 -2.198,-0.811 -0.508,-0.537 -0.765,-1.37 -0.765,-2.501 v -5.184 H 0 Z"
             style="fill:#ffffff;fill-opacity:1;fill-rule:nonzero;stroke:none"
             id="path418" /></g><g
           id="g420"
           transform="translate(449.8389,85.8667)"><path
             d="m 0,0 c -0.011,0.434 -0.079,0.834 -0.205,1.199 -0.12,0.36 -0.309,0.674 -0.554,0.942 -0.246,0.269 -0.553,0.48 -0.925,0.634 -0.371,0.154 -0.805,0.228 -1.296,0.228 -0.48,0 -0.919,-0.091 -1.319,-0.274 C -4.698,2.552 -5.035,2.313 -5.31,2.021 -5.584,1.736 -5.801,1.411 -5.955,1.057 -6.104,0.697 -6.184,0.349 -6.184,0 Z m -6.184,-1.57 c 0,-0.451 0.104,-0.856 0.297,-1.227 0.195,-0.371 0.451,-0.686 0.772,-0.949 0.319,-0.262 0.69,-0.467 1.113,-0.61 0.417,-0.144 0.856,-0.218 1.308,-0.218 0.605,0 1.135,0.144 1.587,0.423 0.451,0.285 0.862,0.656 1.239,1.125 l 1.484,-1.137 c -1.091,-1.404 -2.615,-2.112 -4.573,-2.112 -0.816,0 -1.553,0.143 -2.21,0.417 -0.662,0.274 -1.222,0.656 -1.679,1.142 -0.457,0.485 -0.81,1.062 -1.055,1.718 -0.246,0.663 -0.372,1.376 -0.372,2.147 0,0.771 0.137,1.485 0.406,2.147 0.267,0.657 0.638,1.233 1.107,1.719 0.474,0.485 1.033,0.868 1.691,1.142 0.65,0.274 1.364,0.417 2.134,0.417 0.914,0 1.685,-0.16 2.319,-0.48 C 0.012,3.774 0.531,3.357 0.937,2.838 1.348,2.324 1.64,1.747 1.822,1.096 2.005,0.451 2.096,-0.206 2.096,-0.874 V -1.57 Z"
             style="fill:#ffffff;fill-opacity:1;fill-rule:nonzero;stroke:none"
             id="path422" /></g><g
           id="g424"
           transform="translate(461.9502,87.5854)"><path
             d="m 0,0 c -0.234,0.291 -0.521,0.537 -0.862,0.731 -0.343,0.194 -0.76,0.291 -1.251,0.291 -0.468,0 -0.867,-0.097 -1.21,-0.291 -0.343,-0.194 -0.515,-0.485 -0.515,-0.862 0,-0.303 0.104,-0.549 0.298,-0.737 0.193,-0.194 0.428,-0.342 0.696,-0.463 0.269,-0.113 0.554,-0.199 0.863,-0.256 0.302,-0.058 0.565,-0.109 0.782,-0.155 0.422,-0.102 0.816,-0.222 1.187,-0.371 0.371,-0.142 0.685,-0.331 0.959,-0.565 0.269,-0.234 0.474,-0.514 0.628,-0.851 0.154,-0.331 0.229,-0.736 0.229,-1.216 0,-0.583 -0.12,-1.079 -0.371,-1.496 -0.246,-0.411 -0.566,-0.748 -0.954,-1.01 -0.394,-0.263 -0.839,-0.452 -1.341,-0.566 -0.503,-0.114 -1.005,-0.177 -1.514,-0.177 -0.856,0 -1.61,0.131 -2.255,0.394 -0.645,0.263 -1.222,0.743 -1.73,1.439 l 1.479,1.216 c 0.32,-0.319 0.679,-0.599 1.068,-0.845 0.393,-0.251 0.873,-0.371 1.438,-0.371 0.246,0 0.497,0.023 0.748,0.075 0.257,0.05 0.48,0.13 0.68,0.239 0.194,0.108 0.353,0.246 0.479,0.417 0.12,0.166 0.183,0.36 0.183,0.577 0,0.285 -0.091,0.525 -0.274,0.719 -0.177,0.188 -0.4,0.337 -0.651,0.445 -0.257,0.109 -0.525,0.194 -0.805,0.258 -0.286,0.068 -0.537,0.119 -0.754,0.165 -0.417,0.102 -0.816,0.217 -1.193,0.349 -0.383,0.13 -0.714,0.302 -1.005,0.524 -0.291,0.218 -0.519,0.492 -0.696,0.829 -0.172,0.331 -0.263,0.742 -0.263,1.238 0,0.537 0.114,1.006 0.337,1.405 0.228,0.4 0.525,0.731 0.896,0.988 0.372,0.263 0.788,0.457 1.262,0.588 0.474,0.131 0.948,0.2 1.427,0.2 C -1.308,2.855 -0.64,2.724 0,2.461 0.634,2.198 1.142,1.764 1.524,1.153 Z"
             style="fill:#ffffff;fill-opacity:1;fill-rule:nonzero;stroke:none"
             id="path426" /></g><g
           id="g428"
           transform="translate(473.8379,88.4761)"><path
             d="m 0,0 h -2.81 v -4.676 c 0,-0.291 0.012,-0.582 0.023,-0.863 0.017,-0.285 0.068,-0.536 0.166,-0.764 0.091,-0.223 0.239,-0.405 0.433,-0.543 0.195,-0.137 0.48,-0.205 0.863,-0.205 0.228,0 0.469,0.022 0.714,0.062 0.251,0.046 0.473,0.126 0.679,0.24 V -8.53 c -0.234,-0.132 -0.537,-0.223 -0.908,-0.274 -0.365,-0.052 -0.656,-0.08 -0.856,-0.08 -0.754,0 -1.342,0.108 -1.753,0.319 -0.417,0.212 -0.72,0.481 -0.913,0.817 -0.2,0.331 -0.315,0.708 -0.349,1.119 -0.04,0.417 -0.058,0.834 -0.058,1.251 V 0 h -2.266 v 1.702 h 2.266 V 4.597 H -2.81 V 1.702 H 0 Z"
             style="fill:#ffffff;fill-opacity:1;fill-rule:nonzero;stroke:none"
             id="path430" /></g><g
           id="g432"
           transform="translate(484.1152,84.8223)"><path
             d="m 0,0 c -0.469,0 -0.942,-0.029 -1.428,-0.08 -0.485,-0.052 -0.93,-0.149 -1.33,-0.291 -0.4,-0.149 -0.725,-0.349 -0.976,-0.611 -0.257,-0.263 -0.383,-0.594 -0.383,-0.999 0,-0.6 0.2,-1.029 0.599,-1.286 0.4,-0.262 0.943,-0.393 1.622,-0.393 0.537,0 0.994,0.091 1.371,0.274 0.377,0.177 0.684,0.416 0.919,0.708 0.228,0.291 0.394,0.611 0.497,0.965 0.102,0.359 0.154,0.708 0.154,1.056 V 0 Z m -5.533,4.094 c 0.554,0.508 1.193,0.885 1.919,1.141 0.724,0.252 1.45,0.383 2.175,0.383 0.753,0 1.405,-0.097 1.947,-0.285 C 1.056,5.144 1.501,4.893 1.85,4.573 2.198,4.253 2.455,3.882 2.62,3.471 2.792,3.06 2.872,2.626 2.872,2.175 v -5.27 c 0,-0.36 0.011,-0.697 0.023,-0.999 0.017,-0.308 0.034,-0.594 0.068,-0.874 H 1.216 c -0.04,0.526 -0.063,1.045 -0.063,1.571 H 1.107 C 0.674,-4.065 0.159,-4.54 -0.435,-4.813 -1.034,-5.088 -1.719,-5.23 -2.507,-5.23 c -0.479,0 -0.936,0.068 -1.37,0.2 -0.435,0.131 -0.816,0.325 -1.143,0.588 -0.325,0.262 -0.587,0.582 -0.776,0.964 -0.188,0.389 -0.279,0.834 -0.279,1.342 0,0.668 0.148,1.228 0.445,1.679 0.297,0.445 0.702,0.816 1.222,1.096 0.513,0.286 1.113,0.486 1.804,0.611 0.691,0.125 1.427,0.183 2.209,0.183 h 1.44 v 0.44 C 1.045,2.129 0.993,2.392 0.891,2.655 0.788,2.917 0.64,3.151 0.434,3.363 0.233,3.574 -0.023,3.74 -0.326,3.865 -0.634,3.985 -0.994,4.048 -1.416,4.048 -1.793,4.048 -2.124,4.014 -2.41,3.939 -2.689,3.865 -2.946,3.774 -3.181,3.666 -3.415,3.557 -3.626,3.431 -3.814,3.289 -4.003,3.14 -4.18,3.003 -4.356,2.872 Z"
             style="fill:#ffffff;fill-opacity:1;fill-rule:nonzero;stroke:none"
             id="path434" /></g><path
           d="m 492.172,96.315 h 1.964 V 79.854 h -1.964 z"
           style="fill:#ffffff;fill-opacity:1;fill-rule:nonzero;stroke:none"
           id="path436" /><g
           id="g438"
           transform="translate(507.085,85.8667)"><path
             d="m 0,0 c -0.011,0.434 -0.079,0.834 -0.205,1.199 -0.12,0.36 -0.309,0.674 -0.554,0.942 -0.246,0.269 -0.553,0.48 -0.925,0.634 -0.371,0.154 -0.805,0.228 -1.296,0.228 -0.48,0 -0.919,-0.091 -1.319,-0.274 C -4.699,2.552 -5.035,2.313 -5.31,2.021 -5.584,1.736 -5.801,1.411 -5.955,1.057 -6.104,0.697 -6.184,0.349 -6.184,0 Z m -6.184,-1.57 c 0,-0.451 0.104,-0.856 0.297,-1.227 0.195,-0.371 0.451,-0.686 0.772,-0.949 0.319,-0.262 0.69,-0.467 1.113,-0.61 0.417,-0.144 0.856,-0.218 1.308,-0.218 0.604,0 1.135,0.144 1.587,0.423 0.451,0.285 0.862,0.656 1.239,1.125 l 1.484,-1.137 c -1.091,-1.404 -2.615,-2.112 -4.573,-2.112 -0.816,0 -1.554,0.143 -2.21,0.417 -0.662,0.274 -1.222,0.656 -1.679,1.142 -0.457,0.485 -0.81,1.062 -1.056,1.718 -0.245,0.663 -0.371,1.376 -0.371,2.147 0,0.771 0.137,1.485 0.406,2.147 0.267,0.657 0.638,1.233 1.107,1.719 0.474,0.485 1.033,0.868 1.69,1.142 0.651,0.274 1.365,0.417 2.135,0.417 0.914,0 1.685,-0.16 2.319,-0.48 C 0.012,3.774 0.531,3.357 0.937,2.838 1.348,2.324 1.639,1.747 1.822,1.096 2.005,0.451 2.096,-0.206 2.096,-0.874 V -1.57 Z"
             style="fill:#ffffff;fill-opacity:1;fill-rule:nonzero;stroke:none"
             id="path440" /></g><g
           id="g442"
           transform="translate(519.1953,87.5854)"><path
             d="m 0,0 c -0.233,0.291 -0.52,0.537 -0.861,0.731 -0.343,0.194 -0.76,0.291 -1.251,0.291 -0.468,0 -0.868,-0.097 -1.21,-0.291 -0.343,-0.194 -0.515,-0.485 -0.515,-0.862 0,-0.303 0.104,-0.549 0.297,-0.737 0.194,-0.194 0.429,-0.342 0.697,-0.463 0.269,-0.113 0.554,-0.199 0.863,-0.256 0.301,-0.058 0.564,-0.109 0.782,-0.155 0.422,-0.102 0.816,-0.222 1.187,-0.371 0.371,-0.142 0.685,-0.331 0.959,-0.565 0.269,-0.234 0.474,-0.514 0.628,-0.851 0.154,-0.331 0.229,-0.736 0.229,-1.216 0,-0.583 -0.12,-1.079 -0.371,-1.496 -0.246,-0.411 -0.566,-0.748 -0.954,-1.01 -0.394,-0.263 -0.839,-0.452 -1.341,-0.566 -0.503,-0.114 -1.005,-0.177 -1.514,-0.177 -0.856,0 -1.61,0.131 -2.255,0.394 -0.645,0.263 -1.223,0.743 -1.73,1.439 l 1.478,1.216 c 0.32,-0.319 0.68,-0.599 1.069,-0.845 0.393,-0.251 0.873,-0.371 1.438,-0.371 0.246,0 0.497,0.023 0.748,0.075 0.257,0.05 0.48,0.13 0.68,0.239 0.194,0.108 0.353,0.246 0.479,0.417 0.12,0.166 0.183,0.36 0.183,0.577 0,0.285 -0.091,0.525 -0.275,0.719 -0.176,0.188 -0.399,0.337 -0.65,0.445 -0.257,0.109 -0.525,0.194 -0.806,0.258 -0.285,0.068 -0.536,0.119 -0.753,0.165 -0.417,0.102 -0.816,0.217 -1.193,0.349 -0.383,0.13 -0.714,0.302 -1.005,0.524 -0.291,0.218 -0.519,0.492 -0.697,0.829 -0.171,0.331 -0.263,0.742 -0.263,1.238 0,0.537 0.115,1.006 0.337,1.405 0.229,0.4 0.526,0.731 0.897,0.988 0.371,0.263 0.788,0.457 1.261,0.588 0.475,0.131 0.949,0.2 1.428,0.2 C -1.307,2.855 -0.639,2.724 0,2.461 0.634,2.198 1.143,1.764 1.525,1.153 Z"
             style="fill:#ffffff;fill-opacity:1;fill-rule:nonzero;stroke:none"
             id="path444" /></g><g
           id="g446"
           transform="translate(251.9062,94.8867)"><path
             d="m 0,0 h -188.656 l 89.812,214.31 26.43,-64.483 h 17.289 L -99.27,254.478 -211.389,-14.854 0,-14.733 Z"
             style="fill:#2d7835;fill-opacity:1;fill-rule:nonzero;stroke:none"
             id="path448" /></g><g
           id="g450"
           transform="translate(219.3496,244.5937)"><path
             d="M 0,0 H 30.133 L -3.432,59.207 -37.159,0 h 30.307"
             style="fill:#2d7835;fill-opacity:1;fill-rule:nonzero;stroke:none"
             id="path452" /></g></g></g></g></svg>
